<?xml version="1.0" standalone="no"?>
<!DOCTYPE svg PUBLIC "-//W3C//DTD SVG 20010904//EN"
 "http://www.w3.org/TR/2001/REC-SVG-20010904/DTD/svg10.dtd">
<svg version="1.0" xmlns="http://www.w3.org/2000/svg"
 width="910.000000pt" height="910.000000pt" viewBox="0 0 910.000000 910.000000"
 preserveAspectRatio="xMidYMid meet">
<metadata>
Created by potrace 1.14, written by Peter Selinger 2001-2017
</metadata>
<g transform="translate(0.000000,910.000000) scale(0.100000,-0.100000)"
fill="#000000" stroke="none">
<path d="M4185 8653 c-95 -3 -254 -21 -410 -44 -711 -108 -1391 -407 -1965
-865 -173 -138 -516 -480 -655 -654 -611 -762 -938 -1729 -911 -2700 8 -301
50 -638 106 -850 11 -41 20 -84 20 -95 0 -28 108 -356 165 -500 142 -361 368
-749 622 -1069 126 -158 484 -516 644 -643 216 -171 303 -230 609 -410 47 -27
146 -78 220 -113 1237 -577 2642 -528 3825 133 137 77 417 264 539 361 344
272 648 601 884 953 120 180 215 346 295 513 105 223 117 249 117 255 0 4 22
66 49 138 245 654 312 1400 191 2122 -204 1217 -960 2300 -2039 2920 -170 97
-257 140 -433 216 -596 255 -1184 359 -1873 332z m265 -474 c0 -8 -736 -1286
-1728 -3001 -106 -183 -128 -214 -137 -200 -13 18 -571 984 -607 1051 -13 23
-119 206 -235 407 l-213 367 79 91 c113 131 368 377 496 479 404 322 852 548
1373 692 259 72 549 110 930 124 24 0 42 -4 42 -10z m651 -58 c998 -184 1888
-792 2450 -1676 l89 -140 -930 -3 c-511 -1 -1348 -1 -1860 0 l-930 3 73 123
c39 68 78 135 86 150 10 19 826 1432 898 1555 6 10 5 10 124 -12z m-3764
-1931 c55 -96 403 -699 773 -1340 370 -641 709 -1228 753 -1305 44 -77 108
-187 142 -245 34 -58 67 -115 74 -127 l12 -23 -1064 0 -1064 0 -41 118 c-146
421 -204 774 -204 1227 0 540 111 1045 334 1530 51 109 178 348 183 343 2 -2
48 -82 102 -178z m4239 -1039 c212 -366 383 -669 380 -675 -2 -6 -175 -306
-384 -666 l-379 -655 -778 0 -778 0 -379 655 c-209 360 -382 660 -384 666 -4
8 437 780 763 1337 2 4 353 6 779 5 l775 -3 385 -664z m2331 552 c143 -404
205 -779 205 -1233 -1 -624 -149 -1201 -450 -1754 -56 -102 -66 -116 -75 -100
-6 11 -193 334 -415 719 -223 385 -538 932 -702 1215 -163 283 -389 675 -502
870 -113 195 -210 365 -217 378 l-12 22 1064 0 1063 0 41 -117z m-1098 -2687
l491 -849 -85 -97 c-334 -387 -749 -705 -1202 -922 -469 -225 -939 -339 -1491
-363 l-154 -7 25 44 c14 24 306 529 649 1123 343 594 752 1301 908 1572 l285
491 42 -71 c23 -40 262 -454 532 -921z m-1910 -368 c-13 -24 -904 -1569 -996
-1726 -30 -50 -60 -92 -66 -92 -21 0 -209 38 -317 64 -531 127 -1081 412
-1513 784 -277 238 -580 593 -752 882 -21 36 -45 75 -53 88 l-14 22 1861 0
1862 0 -12 -22z"/>
<path d="M3536 5343 c-19 -19 -1 -43 52 -69 63 -32 91 -71 119 -167 20 -67 31
-884 14 -1048 -19 -188 -59 -265 -150 -286 -29 -7 -36 -13 -36 -33 l0 -25 155
3 c89 2 160 8 167 14 11 8 13 171 11 802 l-3 791 -55 6 c-91 11 -267 18 -274
12z"/>
<path d="M4080 5338 c-63 -5 -121 -11 -127 -13 -10 -3 -13 -171 -13 -793 0
-620 3 -792 13 -799 6 -6 80 -13 163 -17 135 -6 152 -5 158 10 7 19 -10 44
-30 44 -50 0 -111 70 -139 160 -14 44 -19 104 -22 298 -3 133 -1 242 3 242 5
0 33 -14 63 -31 66 -38 201 -172 335 -333 150 -179 295 -320 369 -358 53 -27
75 -32 152 -36 68 -3 95 0 109 11 29 22 13 44 -37 51 -86 13 -181 88 -352 278
-186 206 -274 295 -348 351 -37 29 -63 53 -57 55 19 7 152 -62 220 -112 37
-28 140 -128 228 -222 188 -201 262 -265 357 -310 93 -46 161 -47 227 -5 51
33 71 61 62 86 -5 13 -13 15 -33 8 -121 -37 -271 51 -486 283 -186 200 -275
279 -350 306 l-63 22 26 16 c44 27 113 105 134 151 64 144 51 374 -29 503 -96
155 -186 181 -533 154z m290 -136 c68 -24 98 -50 128 -112 25 -51 27 -64 27
-185 0 -114 -3 -136 -23 -180 -46 -99 -105 -136 -229 -143 -45 -2 -107 -1
-139 3 l-56 7 5 276 c3 153 8 287 12 298 18 57 164 76 275 36z"/>
<path d="M4667 5264 c-3 -4 8 -33 24 -66 40 -78 69 -195 69 -274 0 -86 -25
-209 -55 -270 -14 -28 -25 -56 -25 -62 0 -25 41 -10 102 36 86 66 127 145 135
259 8 112 -19 198 -84 272 -65 74 -146 125 -166 105z"/>
</g>
</svg>
